<?xml version="1.0" encoding="utf-8"?>
<!-- Generator: Adobe Illustrator 22.1.0, SVG Export Plug-In . SVG Version: 6.00 Build 0)  -->
<svg version="1.1" id="Capa_1" xmlns="http://www.w3.org/2000/svg" xmlns:xlink="http://www.w3.org/1999/xlink" x="0px" y="0px"
	 viewBox="0 0 11 11" style="enable-background:new 0 0 11 11;" xml:space="preserve">
<style type="text/css">
	.st0{fill:#2B73FF;}
</style>
<g>
	<path class="st0" d="M5.5,0C2.5,0,0,2.5,0,5.5S2.5,11,5.5,11c3,0,5.5-2.5,5.5-5.5S8.5,0,5.5,0z M5.5,10C3,10,1,8,1,5.5
		C1,3,3,1,5.5,1C8,1,10,3,10,5.5C10,8,8,10,5.5,10z"/>
	<path class="st0" d="M8,5.3c0-0.1-0.1-0.1-0.1-0.2l-2-2C5.7,3,5.3,3,5.1,3.1C5,3.3,5,3.7,5.1,3.9L6.3,5H3.5C3.2,5,3,5.2,3,5.5
		C3,5.8,3.2,6,3.5,6h2.8L5.1,7.1C5,7.3,5,7.7,5.1,7.9C5.2,8,5.4,8,5.5,8c0.1,0,0.3,0,0.4-0.1l2-2c0,0,0.1-0.1,0.1-0.2
		C8,5.6,8,5.4,8,5.3z"/>
</g>
</svg>
