<?xml version="1.0" encoding="utf-8"?>
<!-- Generator: Adobe Illustrator 22.1.0, SVG Export Plug-In . SVG Version: 6.00 Build 0)  -->
<svg version="1.1" id="Capa_1" xmlns="http://www.w3.org/2000/svg" xmlns:xlink="http://www.w3.org/1999/xlink" x="0px" y="0px"
	 viewBox="0 0 176 176" style="enable-background:new 0 0 176 176;" xml:space="preserve">
<style type="text/css">
	.st0{clip-path:url(#SVGID_2_);fill:#2B73FF;}
	.st1{clip-path:url(#SVGID_2_);fill:#FFFFFF;}
</style>
<g>
	<defs>
		<rect id="SVGID_1_" width="176" height="176"/>
	</defs>
	<clipPath id="SVGID_2_">
		<use xlink:href="#SVGID_1_"  style="overflow:visible;"/>
	</clipPath>
	<path class="st0" d="M176,88c0,48.6-39.4,88-88,88c-48.6,0-88-39.4-88-88S39.4,0,88,0C136.6,0,176,39.4,176,88"/>
	<path class="st1" d="M80.8,125.4c-10-1.9-18.6-7.6-24.3-16.1c-5-7.4-7.2-16-6.4-24.7l13.1,13l2.8-2.8L48.8,77.6L31.6,94.8l2.8,2.8
		L46.1,86c-0.5,9,2,17.9,7.1,25.6c6.3,9.3,15.8,15.6,26.8,17.8c2.7,0.5,5.4,0.8,8.1,0.8c11.3,0,22.1-4.5,30.2-12.8l-2.9-2.8
		C106.4,123.7,93.5,127.8,80.8,125.4"/>
	<path class="st1" d="M141.6,77.7l-11.5,11.8c0.4-9-2.2-17.9-7.4-25.5c-6.4-9.2-16-15.4-27-17.5c-14-2.6-28.3,2.1-38.1,12.5l2.9,2.8
		c8.9-9.4,21.8-13.6,34.5-11.3c10,1.8,18.7,7.4,24.5,15.8c5,7.3,7.3,15.9,6.6,24.6l-13.2-12.9l-2.8,2.9l17.5,17l17-17.5L141.6,77.7z
		"/>
	<path class="st1" d="M102,92.1c0-7.1-11.1-20-12.4-21.5l-1.5-1.7l-1.5,1.7C85.4,72.1,74.3,85,74.3,92.1c0,7.6,6.2,13.9,13.9,13.9
		C95.8,106,102,99.8,102,92.1 M78.3,92.1c0-3.8,5.5-11.8,9.9-17c4.3,5.3,9.9,13.3,9.9,17c0,5.4-4.4,9.9-9.9,9.9
		C82.7,102,78.3,97.6,78.3,92.1"/>
</g>
</svg>
