<?xml version="1.0" encoding="utf-8"?>
<!-- Generator: Adobe Illustrator 22.1.0, SVG Export Plug-In . SVG Version: 6.00 Build 0)  -->
<svg version="1.1" id="Capa_1" xmlns="http://www.w3.org/2000/svg" xmlns:xlink="http://www.w3.org/1999/xlink" x="0px" y="0px"
	 viewBox="0 0 176 176" style="enable-background:new 0 0 176 176;" xml:space="preserve">
<style type="text/css">
	.st0{clip-path:url(#SVGID_2_);fill:#2B73FF;}
	.st1{clip-path:url(#SVGID_2_);fill:#FFFFFF;}
</style>
<g>
	<defs>
		<rect id="SVGID_1_" width="176" height="176"/>
	</defs>
	<clipPath id="SVGID_2_">
		<use xlink:href="#SVGID_1_"  style="overflow:visible;"/>
	</clipPath>
	<path class="st0" d="M176,88c0,48.6-39.4,88-88,88c-48.6,0-88-39.4-88-88S39.4,0,88,0C136.6,0,176,39.4,176,88"/>
	<path class="st1" d="M60,113l-1.5,1.7c-1.4,1.6-8.5,10-8.5,14.9c0,5.5,4.5,10,10,10c5.5,0,10-4.5,10-10c0-4.9-7.1-13.2-8.5-14.9
		L60,113z M60,135.5c-3.3,0-6-2.7-6-6c0-2.1,3.1-6.9,6-10.4c2.8,3.6,6,8.3,6,10.4C66,132.8,63.3,135.5,60,135.5"/>
	<path class="st1" d="M116,113l-1.5,1.7c-1.4,1.6-8.5,10-8.5,14.9c0,5.5,4.5,10,10,10c5.5,0,10-4.5,10-10c0-4.9-7.1-13.2-8.5-14.9
		L116,113z M116,135.5c-3.3,0-6-2.7-6-6c0-2.1,3.1-6.9,6-10.4c2.8,3.6,6,8.3,6,10.4C122,132.8,119.3,135.5,116,135.5"/>
	<path class="st1" d="M88,113l-1.5,1.7c-1.4,1.6-8.5,10-8.5,14.9c0,5.5,4.5,10,10,10c5.5,0,10-4.5,10-10c0-4.9-7.1-13.2-8.5-14.9
		L88,113z M88,135.5c-3.3,0-6-2.7-6-6c0-2.1,3.1-6.9,6-10.4c2.8,3.6,6,8.3,6,10.4C94,132.8,91.3,135.5,88,135.5"/>
	<path class="st1" d="M125.5,70.1c-1.5-5.9-6.2-10.4-12.1-11.7C110.8,46.5,100.3,38,88,38c-12.2,0-22.6,8.3-25.3,20
		C49.1,57.6,38,68.5,38,82c0,13.2,10.8,24,24,24h62c9.9,0,18-8.1,18-18C142,78.6,134.7,70.8,125.5,70.1 M124,102H62
		c-11,0-20-9-20-20s9-20,20-20c0.7,0,1.4,0,2.1,0.1l1.9,0.2l0.3-1.9C68,49.8,77.2,42,88,42c10.8,0,20,7.7,21.7,18.4l0.2,1.5l1.5,0.2
		c5.4,0.6,9.7,4.8,10.4,10.2l0.3,1.8l1.8,0l0.2,0c7.7,0,14,6.3,14,14C138,95.7,131.7,102,124,102"/>
</g>
</svg>
