<?xml version="1.0" encoding="utf-8"?>
<!-- Generator: Adobe Illustrator 22.1.0, SVG Export Plug-In . SVG Version: 6.00 Build 0)  -->
<svg version="1.1" id="Capa_1" xmlns="http://www.w3.org/2000/svg" xmlns:xlink="http://www.w3.org/1999/xlink" x="0px" y="0px"
	 viewBox="0 0 176 176" style="enable-background:new 0 0 176 176;" xml:space="preserve">
<style type="text/css">
	.st0{clip-path:url(#SVGID_2_);fill:#2B73FF;}
	.st1{clip-path:url(#SVGID_2_);fill:#FFFFFF;}
</style>
<g>
	<defs>
		<rect id="SVGID_1_" width="176" height="176"/>
	</defs>
	<clipPath id="SVGID_2_">
		<use xlink:href="#SVGID_1_"  style="overflow:visible;"/>
	</clipPath>
	<path class="st0" d="M176,88c0,48.6-39.4,88-88,88S0,136.6,0,88S39.4,0,88,0S176,39.4,176,88"/>
	<path class="st1" d="M129.4,50.6c-0.3-0.3-8.2-8-27.4-12.2V34H74v4.4c-19.2,4.2-27.1,11.9-27.4,12.2L46,51.2V134h83.9l0.1-82.8
		L129.4,50.6z M102,42.5c9.5,2.2,15.9,5.2,19.8,7.5H102V42.5z M74,42.5V50H54.2C58.1,47.7,64.5,44.6,74,42.5 M50,130V54h28V41.6V40
		v-2h20v2v1.6V54h28l-0.1,76H50z"/>
</g>
</svg>
