<svg xmlns="http://www.w3.org/2000/svg" viewBox="0 0 176 176"><defs><style>.cls-1{fill:#2b73ff;}.cls-2{fill:#fff;}</style></defs><title>soluciones-septico</title><g id="Capa_2" data-name="Capa 2"><g id="icon_design" data-name="icon design"><circle class="cls-1" cx="88" cy="88" r="88"/><path class="cls-2" d="M126,78V90c-3,.7-4.79,2.91-6.25,4.76-1.74,2.21-2.84,3.46-5.1,3.46s-3.35-1.25-5.09-3.46-3.93-5-8.23-5-6.48,2.76-8.24,5S90.22,98.22,88,98.22s-3.35-1.25-5.1-3.46-3.93-5-8.23-5-6.48,2.76-8.23,5-2.84,3.46-5.09,3.46S58,97,56.23,94.76C54.78,92.92,53,90.7,50,90V78.56H36v4H46V134h83.93l0-52h10V78ZM50,130V94.23a10.15,10.15,0,0,1,3.09,3c1.75,2.22,3.93,5,8.23,5s6.48-2.76,8.23-5,2.84-3.46,5.09-3.46S78,95,79.73,97.24s3.94,5,8.24,5,6.48-2.76,8.23-5,2.84-3.46,5.1-3.46,3.35,1.25,5.09,3.46,3.93,5,8.23,5,6.49-2.76,8.24-5a10.17,10.17,0,0,1,3.1-3l0,35.77Z"/><polygon class="cls-2" points="50 54 78 54 78 38 98 38 98 54 126 54 125.98 70 139.6 70 139.6 66 129.99 66 130 50 102 50 102 38 112 38 112 34 102 34 74 34 64 34 64 38 74 38 74 50 46 50 46 66 36 66 36 70 50 70 50 54"/></g></g></svg>